# xmcd
#
# Track frame offsets:
#	150
#	14175
#	30737
#	41812
#	55200
#	69350
#	80425
#	90125
#	100862
#	111587
#	125825
#	138700
#	150950
#	162637
#	171000
#	184875
#	197550
#	212275
#
# Disc length: 2956
#
# Revision: 2
# Processed by: cddbd v1.5.1PL0 Copyright (c) Steve Scherf et al.
# Submitted via: CDex 1.51
# Normalized: r1:TDELIM( - )
#
DISCID=f90b8a12
DTITLE=Various Artist - Best Of Country Vol.1-CD1
DYEAR=1996
DGENRE=Country
TTITLE0=Johnny Cash - Orange Blossom Special
TTITLE1=Lee Hazelwood and Nancy Sinatra - Summerwine
TTITLE2=Roger Miller - King Of the Road
TTITLE3=Dean Martin - Crying Time
TTITLE4=Johnny Horton - Comanche (The Brave Horse)
TTITLE5=Billy Jo Spears - If You Want Me
TTITLE6=New Christy Minstrels - Green, Green
TTITLE7=Tammy Wynette - Singing My Song
TTITLE8=John D. Loudermilk - Blue Train
TTITLE9=Gene Pitney - Somewhere In The Country
TTITLE10=Lynn Anderson - Rose Garden
TTITLE11=Perry Como - Don't Let The Stars Get In your Eyes
TTITLE12=Kitty Wells - Amigos Guitar
TTITLE13=Bob Luman - Let's Think About Living
TTITLE14=Roy Drusky - Guantanamera
TTITLE15=Patti Page - Gentle On My Mind
TTITLE16=Jerry Jackson - Tell Her Johnny Said Goodbye
TTITLE17=Warner Mack - Sittin' On A Rock
EXTD=YEAR: 1996
EXTT0=
EXTT1=
EXTT2=
EXTT3=
EXTT4=
EXTT5=
EXTT6=
EXTT7=
EXTT8=
EXTT9=
EXTT10=
EXTT11=
EXTT12=
EXTT13=
EXTT14=
EXTT15=
EXTT16=
EXTT17=
PLAYORDER=
